<svg xmlns="http://www.w3.org/2000/svg" viewBox="0 0 1200 630" width="1200" height="630" role="img">
  <defs>
    <linearGradient id="bg" x1="0" y1="0" x2="1" y2="1"><stop offset="0" stop-color="#1d1d1d"/><stop offset="1" stop-color="#262626"/></linearGradient>
    <radialGradient id="glow" cx="0.72" cy="0.28" r="0.6"><stop offset="0" stop-color="#027333" stop-opacity="0.34"/><stop offset="1" stop-color="#027333" stop-opacity="0"/></radialGradient>
    <pattern id="grid" width="48" height="48" patternUnits="userSpaceOnUse"><path d="M48 0H0v48" fill="none" stroke="#F2F1DF" stroke-opacity="0.05" stroke-width="1"/></pattern>
  </defs>
  <rect width="1200" height="630" fill="url(#bg)"/><rect width="1200" height="630" fill="url(#grid)"/><rect width="1200" height="630" fill="url(#glow)"/>
  <g transform="translate(0,120)"><rect x="80" y="278" width="34" height="142" rx="3" fill="#93BF9E" opacity="0.25"/><rect x="154" y="230" width="34" height="190" rx="3" fill="#027333" opacity="0.33999999999999997"/><rect x="228" y="202" width="34" height="218" rx="3" fill="#027333" opacity="0.43"/><rect x="302" y="156" width="34" height="264" rx="3" fill="#93BF9E" opacity="0.52"/><rect x="376" y="358" width="34" height="62" rx="3" fill="#027333" opacity="0.61"/><rect x="450" y="293" width="34" height="127" rx="3" fill="#027333" opacity="0.25"/><rect x="524" y="321" width="34" height="99" rx="3" fill="#93BF9E" opacity="0.33999999999999997"/><rect x="598" y="150" width="34" height="270" rx="3" fill="#027333" opacity="0.43"/><rect x="672" y="167" width="34" height="253" rx="3" fill="#027333" opacity="0.52"/><rect x="746" y="309" width="34" height="111" rx="3" fill="#93BF9E" opacity="0.61"/><rect x="820" y="293" width="34" height="127" rx="3" fill="#027333" opacity="0.25"/><rect x="894" y="338" width="34" height="82" rx="3" fill="#027333" opacity="0.33999999999999997"/><rect x="968" y="309" width="34" height="111" rx="3" fill="#93BF9E" opacity="0.43"/><rect x="1042" y="229" width="34" height="191" rx="3" fill="#027333" opacity="0.52"/><rect x="1116" y="346" width="34" height="74" rx="3" fill="#027333" opacity="0.61"/></g><g transform="translate(800,180)" opacity="0.95">
    <rect x="0" y="60" width="72" height="26" rx="13" fill="#F2F1DF" opacity="0.28"/>
    <rect x="80" y="60" width="72" height="26" rx="13" fill="#93BF9E"/>
    <rect x="160" y="60" width="72" height="26" rx="13" fill="#F2F1DF" opacity="0.28"/>
    <rect x="240" y="60" width="72" height="26" rx="13" fill="#F2F1DF" opacity="0.28"/>
    <path d="M116 30 v20 m0 0 l-11 -11 m11 11 l11 -11" stroke="#F2F1DF" stroke-width="5" fill="none" stroke-linecap="round" stroke-linejoin="round"/>
    <circle cx="116" cy="73" r="7" fill="#262626"/>
  </g>
</svg>